# xmcd CD database file
#
# Track frame offsets:
#	182
#	14770
#	28735
#	48107
#	60727
#	74095
#	86525
#	97285
#	108640
#	125077
#	138040
#	152527
#	167045
#	180257
#	195892
#	206897
#	223415
#	238215
#	249342
#	267475
#	285190
#	300327
#
# Disc length: 4152 seconds
#
# Revision: 2
# Processed by: cddbd v1.5.2PL0 Copyright (c) Steve Scherf et al.
# Submitted via: CDex 1.51
#
DISCID=42103616
DTITLE=Jazz - The Complete Nocturne Recordings - Vol.1 - CD 2  (1954 Fresh Sound)
DYEAR=1954
DGENRE=Jazz
TTITLE0=Fast Buck - Bob Enevoldsen Quintet
TTITLE1=My Old Flame - Bob Enevoldsen Quintet
TTITLE2=Danza To Brazil - Bob Enevoldsen Quintet
TTITLE3=Lulu's Back In Town - Bob Enevoldsen Quintet
TTITLE4=Bob White - Bob Enevoldsen Quintet
TTITLE5=Where Did The Gentleman Go? - Bob Enevoldsen Quintet
TTITLE6=Snootie Little Cutie - Bob Enevoldsen Quintet
TTITLE7=Patty - Herbie Harper Quartet
TTITLE8=The New York Ghost - Herbie Harper Quintet
TTITLE9=Julie Is Her Name - Herbie Harper Quartet
TTITLE10=Sanguine - Herbie Harper Quintet
TTITLE11=Now Playing - Herbie Harper Quintet
TTITLE12=6-4 Mambo - Herbie Harper Quartet
TTITLE13=Bananera - Herbie Harper Quartet
TTITLE14=Indian Summer - Herbie Harper Quartet
TTITLE15=The Happy Clown - Herbie Harper Quintet
TTITLE16=Bounce - Virgil Gonsalves Quintet
TTITLE17=Out Of Nowhere - Virgil Gonsalves Quintet
TTITLE18=Too Marvelous For Words - Virgil Gonsalves Quintet
TTITLE19=It Might As Well Be Spring - Virgil Gonsalves Quintet
TTITLE20=Yesterdays - Virgil Gonsalves Quintet
TTITLE21=Love Me Or Leave Me - Virgil Gonsalves Quintet
EXTD=YEAR: 1954
EXTT0=
EXTT1=
EXTT2=
EXTT3=
EXTT4=
EXTT5=
EXTT6=
EXTT7=
EXTT8=
EXTT9=
EXTT10=
EXTT11=
EXTT12=
EXTT13=
EXTT14=
EXTT15=
EXTT16=
EXTT17=
EXTT18=
EXTT19=
EXTT20=
EXTT21=
PLAYORDER=
